<svg width="80" height="80" viewBox="0 0 80 80" fill="none" xmlns="http://www.w3.org/2000/svg">
<rect width="80" height="80" rx="20" fill="#BB1020"/>
<path d="M13.7005 38.4C14.8952 37.1413 16.0152 36.512 17.0605 36.512C17.9778 36.512 18.8952 37.0347 19.8125 38.08L14.3725 43.36L19.8765 48.704C19.4925 49.1733 19.0658 49.5467 18.5965 49.824C18.1485 50.1013 17.6472 50.24 17.0925 50.24C16.6018 50.24 16.0792 50.1013 15.5245 49.824C14.9698 49.5253 14.3832 49.0453 13.7645 48.384L8.9325 43.328L13.7005 38.4ZM26.9483 52.832C25.5616 52.832 24.5696 52.4373 23.9723 51.648C23.3749 50.8373 23.0763 49.6427 23.0763 48.064C23.0763 46.464 23.7483 41.952 25.0923 34.528L23.3963 31.104C25.8069 29.5467 28.0043 28.768 29.9883 28.768C31.2469 28.768 32.0256 29.3653 32.3243 30.56C34.5003 30.496 37.4016 29.952 41.0283 28.928C41.1989 29.888 41.2843 30.6987 41.2843 31.36C41.2843 32.7253 40.7616 33.8027 39.7163 34.592C38.6923 35.36 37.4976 35.744 36.1323 35.744C34.7669 35.744 33.4016 35.4133 32.0363 34.752C32.0363 34.752 31.9403 35.2747 31.7483 36.32C31.5989 37.152 31.3536 38.4213 31.0123 40.128C31.7376 40.2987 32.4203 40.384 33.0603 40.384C33.9349 40.2133 34.8949 39.968 35.9403 39.648C36.0469 40.0107 36.1003 40.608 36.1003 41.44C36.1003 42.2507 35.7696 42.9013 35.1083 43.392C34.4469 43.8827 33.7003 44.128 32.8683 44.128C32.0363 44.128 31.1936 44.032 30.3403 43.84C30.1056 45.184 29.9883 46.1547 29.9883 46.752C29.9883 48.8213 30.3083 50.368 30.9483 51.392C29.6683 52.352 28.3349 52.832 26.9483 52.832ZM45.792 52.832C44.4053 52.832 43.4133 52.4373 42.816 51.648C42.2187 50.8373 41.92 49.6427 41.92 48.064C41.92 46.464 42.592 41.952 43.936 34.528L42.24 31.104C44.6507 29.5467 46.848 28.768 48.832 28.768C50.0907 28.768 50.8693 29.3653 51.168 30.56C53.344 30.496 56.2453 29.952 59.872 28.928C60.0427 29.888 60.128 30.6987 60.128 31.36C60.128 32.7253 59.6053 33.8027 58.56 34.592C57.536 35.36 56.3413 35.744 54.976 35.744C53.6107 35.744 52.2453 35.4133 50.88 34.752C50.88 34.752 50.784 35.2747 50.592 36.32C50.4427 37.152 50.1973 38.4213 49.856 40.128C50.5813 40.2987 51.264 40.384 51.904 40.384C52.7787 40.2133 53.7387 39.968 54.784 39.648C54.8907 40.0107 54.944 40.608 54.944 41.44C54.944 42.2507 54.6133 42.9013 53.952 43.392C53.2907 43.8827 52.544 44.128 51.712 44.128C50.88 44.128 50.0373 44.032 49.184 43.84C48.9493 45.184 48.832 46.1547 48.832 46.752C48.832 48.8213 49.152 50.368 49.792 51.392C48.512 52.352 47.1787 52.832 45.792 52.832ZM71.0678 43.328L66.2358 48.384C65.6171 49.0453 65.0198 49.5253 64.4438 49.824C63.8678 50.1013 63.3344 50.24 62.8438 50.24C62.3104 50.24 61.8198 50.1013 61.3718 49.824C60.9238 49.5467 60.5078 49.1733 60.1238 48.704L65.6278 43.36L60.1878 38.08C61.1051 37.0347 62.0224 36.512 62.9398 36.512C63.9638 36.512 65.0838 37.1413 66.2998 38.4L71.0678 43.328Z" fill="white"/>
</svg>
